<?xml version="1.0" encoding="UTF-8" standalone="no"?>
<!DOCTYPE svg PUBLIC "-//W3C//DTD SVG 1.1//EN" "http://www.w3.org/Graphics/SVG/1.1/DTD/svg11.dtd">
<svg width="100%" height="100%" viewBox="0 0 83 83" version="1.1" xmlns="http://www.w3.org/2000/svg" xmlns:xlink="http://www.w3.org/1999/xlink" xml:space="preserve" xmlns:serif="http://www.serif.com/" style="fill-rule:evenodd;clip-rule:evenodd;stroke-linejoin:round;stroke-miterlimit:2;">
    <g transform="matrix(1,0,0,1,-1406.89,-621.477)">
        <g transform="matrix(1,0,0,1,1401.53,696)">
            <path d="M54.15,7.031C57.178,7.031 59.277,4.395 60.84,0.391L85.644,-64.404C86.426,-66.357 86.865,-68.115 86.865,-69.58C86.865,-72.315 85.156,-74.023 82.471,-74.023C81.006,-74.023 79.248,-73.535 77.295,-72.803L12.06,-47.754C8.643,-46.484 5.859,-44.336 5.859,-41.26C5.859,-37.402 8.887,-36.133 12.744,-35.01L32.227,-29.053C34.961,-28.223 36.377,-28.223 38.232,-29.932L80.566,-69.238C81.104,-69.727 81.738,-69.629 82.129,-69.287C82.568,-68.897 82.617,-68.213 82.129,-67.676L43.018,-25.147C41.406,-23.389 41.26,-22.07 42.139,-19.19L47.803,-0.244C48.975,3.809 50.244,7.031 54.15,7.031Z" style="fill:white;fill-rule:nonzero;stroke:white;stroke-width:1px;"/>
        </g>
    </g>
</svg>
