<?xml version="1.0" encoding="UTF-8" standalone="no"?>
<!DOCTYPE svg PUBLIC "-//W3C//DTD SVG 1.1//EN" "http://www.w3.org/Graphics/SVG/1.1/DTD/svg11.dtd">
<svg width="100%" height="100%" viewBox="0 0 67 95" version="1.1" xmlns="http://www.w3.org/2000/svg" xmlns:xlink="http://www.w3.org/1999/xlink" xml:space="preserve" xmlns:serif="http://www.serif.com/" style="fill-rule:evenodd;clip-rule:evenodd;stroke-linejoin:round;stroke-miterlimit:2;">
    <g transform="matrix(1,0,0,1,-1416.83,-611.174)">
        <g transform="matrix(1,0,0,1,1407.56,696)">
            <path d="M22.022,9.131L62.5,9.131C70.703,9.131 74.805,5.029 74.805,-3.32L74.805,-60.791C74.805,-69.092 70.703,-73.242 62.988,-73.242L62.744,-73.242L62.744,-68.018C62.744,-62.842 59.277,-59.131 54.15,-59.131L30.371,-59.131C25.293,-59.131 21.826,-62.842 21.826,-68.018L21.826,-73.242L21.582,-73.242C13.818,-73.242 9.766,-69.092 9.766,-60.791L9.766,-3.32C9.766,5.029 13.818,9.131 22.022,9.131ZM30.371,-63.916L54.15,-63.916C56.543,-63.916 58.008,-65.43 58.008,-68.018L58.008,-72.119C58.008,-74.707 56.543,-76.221 54.15,-76.221L50.977,-76.221C50.684,-80.713 46.924,-84.326 42.285,-84.326C37.647,-84.326 33.887,-80.713 33.545,-76.221L30.371,-76.221C27.979,-76.221 26.563,-74.707 26.563,-72.119L26.563,-68.018C26.563,-65.43 27.979,-63.916 30.371,-63.916ZM42.285,-72.559C40.478,-72.559 38.965,-74.072 38.965,-75.879C38.965,-77.686 40.478,-79.15 42.285,-79.15C44.092,-79.15 45.557,-77.686 45.557,-75.879C45.557,-74.072 44.092,-72.559 42.285,-72.559Z" style="fill:white;fill-rule:nonzero;stroke:white;stroke-width:1px;"/>
        </g>
    </g>
</svg>
