<?xml version="1.0" encoding="UTF-8" standalone="no"?>
<!DOCTYPE svg PUBLIC "-//W3C//DTD SVG 1.1//EN" "http://www.w3.org/Graphics/SVG/1.1/DTD/svg11.dtd">
<svg width="100%" height="100%" viewBox="0 0 73 93" version="1.1" xmlns="http://www.w3.org/2000/svg" xmlns:xlink="http://www.w3.org/1999/xlink" xml:space="preserve" xmlns:serif="http://www.serif.com/" style="fill-rule:evenodd;clip-rule:evenodd;stroke-linejoin:round;stroke-miterlimit:2;">
    <g transform="matrix(1,0,0,1,-1413.36,-614.549)">
        <g transform="matrix(1,0,0,1,1404.09,696)">
            <path d="M50.635,-33.838L80.469,-63.672C82.959,-66.162 81.445,-69.092 78.125,-70.166C71.387,-72.315 63.525,-73.047 53.076,-72.412L50.879,-74.707C47.607,-78.125 43.018,-78.076 39.551,-74.707C36.279,-71.289 36.084,-66.504 39.6,-63.33L41.846,-61.328C41.162,-50.977 41.895,-43.115 44.043,-36.231C45.166,-32.813 48.047,-31.299 50.635,-33.838ZM14.063,10.889L57.324,10.889C58.887,10.889 59.961,9.766 59.961,8.057C59.961,4.785 57.129,2.539 52.783,2.539L18.652,2.539C14.307,2.539 11.426,4.785 11.426,8.057C11.426,9.766 12.549,10.889 14.063,10.889ZM17.725,-27.734L47.998,-55.518L43.213,-60.645L12.94,-32.813L17.725,-27.734ZM32.178,-11.133L37.158,-16.113L17.188,-36.035L12.207,-31.055L32.178,-11.133ZM68.311,-35.645C73.926,-35.645 78.613,-40.381 78.613,-45.898C78.613,-48.486 77.637,-51.025 75.684,-52.978L61.182,-38.525C63.184,-36.621 65.723,-35.645 68.311,-35.645ZM29.834,4.785L36.914,4.785L36.914,-13.428L29.834,-13.428L29.834,4.785ZM33.398,-6.836C37.061,-6.836 39.99,-9.717 39.99,-13.477C39.99,-17.139 37.061,-20.117 33.398,-20.117C29.639,-20.117 26.758,-17.139 26.758,-13.477C26.758,-9.717 29.639,-6.836 33.398,-6.836ZM16.406,-24.805C20.068,-24.805 22.998,-27.686 22.998,-31.397C22.998,-35.107 20.068,-38.037 16.406,-38.037C12.647,-38.037 9.766,-35.107 9.766,-31.397C9.766,-27.686 12.647,-24.805 16.406,-24.805ZM41.699,-67.92L46.338,-72.607L38.916,-79.981C37.598,-81.299 35.596,-81.25 34.326,-79.981C33.057,-78.711 33.008,-76.709 34.326,-75.391L41.699,-67.92Z" style="fill:white;fill-rule:nonzero;stroke:white;stroke-width:1px;"/>
        </g>
    </g>
</svg>
