<?xml version="1.0" encoding="UTF-8" standalone="no"?>
<!DOCTYPE svg PUBLIC "-//W3C//DTD SVG 1.1//EN" "http://www.w3.org/Graphics/SVG/1.1/DTD/svg11.dtd">
<svg width="100%" height="100%" viewBox="0 0 99 73" version="1.1" xmlns="http://www.w3.org/2000/svg" xmlns:xlink="http://www.w3.org/1999/xlink" xml:space="preserve" xmlns:serif="http://www.serif.com/" style="fill-rule:evenodd;clip-rule:evenodd;stroke-linejoin:round;stroke-miterlimit:2;">
    <g transform="matrix(1,0,0,1,-1400.72,-624.113)">
        <g transform="matrix(1,0,0,1,1391.45,696)">
            <g id="Regular-S">
                <path d="M18.066,0.342L29.395,0.342C34.912,0.342 37.744,-2.344 37.744,-7.52L37.744,-41.162C37.744,-46.338 34.912,-48.975 29.395,-48.975L18.066,-48.975C12.598,-48.975 9.766,-46.338 9.766,-41.162L9.766,-7.52C9.766,-2.344 12.598,0.342 18.066,0.342Z" style="fill:white;fill-rule:nonzero;stroke:white;stroke-width:1px;"/>
                <path d="M52.734,0.342L64.063,0.342C69.58,0.342 72.412,-2.344 72.412,-7.52L72.412,-52.344C72.412,-57.52 69.58,-60.156 64.063,-60.156L52.734,-60.156C47.266,-60.156 44.385,-57.52 44.385,-52.344L44.385,-7.52C44.385,-2.344 47.266,0.342 52.734,0.342Z" style="fill:white;fill-rule:nonzero;stroke:white;stroke-width:1px;"/>
                <path d="M87.354,0.342L98.682,0.342C104.199,0.342 107.031,-2.344 107.031,-7.52L107.031,-63.574C107.031,-68.75 104.199,-71.387 98.682,-71.387L87.354,-71.387C81.885,-71.387 79.053,-68.75 79.053,-63.574L79.053,-7.52C79.053,-2.344 81.885,0.342 87.354,0.342Z" style="fill:white;fill-rule:nonzero;stroke:white;stroke-width:1px;"/>
            </g>
        </g>
    </g>
</svg>
